# AST/ASF file generated using VICON BodyLanguage
# -----------------------------------------------
:version 1.10
:name VICON
:units
  mass 1.0
  length 0.45
  angle deg
:documentation
   .ast/.asf automatically generated from VICON data using
   VICON BodyBuilder and BodyLanguage model FoxedUp or BRILLIANT.MOD
:root
   order TX TY TZ RX RY RZ
   axis XYZ
   position 0 0 0  
   orientation 0 0 0 
:bonedata
  begin
     id 1 
     name lhipjoint
     direction 0.523584 -0.783993 0.333487 
     length 2.44404 
     axis 0 0 0  XYZ
  end
  begin
     id 2 
     name lfemur
     direction 0.34202 -0.939693 0  
     length 7.29523  
     axis 0 0 20  XYZ
    dof rx ry rz
    limits (-160.0 20.0)
           (-70.0 70.0)
           (-60.0 70.0)
  end
  begin
     id 3 
     name ltibia
     direction 0.34215 -0.939645 0   
     length 7.81194   
     axis 0 0 20   XYZ
    dof rx
    limits (-10.0 170.0)
  end
  begin
     id 4 
     name lfoot
     direction 0.0941847 -0.25877 0.961336   
     length 2.41437   
     axis -90 7.62852e-016 20   XYZ
    dof rx rz
    limits (-45.0 90.0)
           (-70.0 20.0)
  end
  begin
     id 5 
     name ltoes
     direction 1.53526e-011 -4.21768e-011 1   
     length 1.2048   
     axis -90 7.62852e-016 20   XYZ
    dof rx
    limits (-90.0 20.0)
  end
  begin
     id 6 
     name rhipjoint
     direction -0.46599 -0.814191 0.346332   
     length 2.35339  
     axis 0 0 0  XYZ 
  end
  begin
     id 7 
     name rfemur
     direction -0.34202 -0.939693 0   
     length 7.34966   
     axis 0 0 -20   XYZ
    dof rx ry rz
    limits (-160.0 20.0)
           (-70.0 70.0)
           (-70.0 60.0)
  end
  begin
     id 8 
     name rtibia
     direction -0.34202 -0.939693 0   
     length 7.89934   
     axis 0 0 -20   XYZ
    dof rx
    limits (-10.0 170.0)
 end
 begin
     id 9 
     name rfoot
     direction -0.0975468 -0.268008 0.958466   
     length 2.27725  
     axis -90 -7.62852e-016 -20   XYZ
    dof rx rz
    limits (-45.0 90.0)
           (-20.0 70.0)
  end
  begin
     id 10 
     name rtoes
     direction -1.53563e-011 -4.22022e-011 1   
     length 1.13683   
     axis -90 -7.62852e-016 -20   XYZ
    dof rx
    limits (-90.0 20.0)
  end
  begin
     id 11 
     name lowerback
     direction -0.00456414 0.999242 -0.0386661   
     length 2.16968   
     axis 0 0 0   XYZ
    dof rx ry rz
    limits (-20.0 45.0)
           (-30.0 30.0)
           (-30.0 30.0)
  end
  begin
     id 12 
     name upperback
     direction 0.0297078 0.998988 0.0337799   
     length 2.15674   
     axis 0 0 0   XYZ
    dof rx ry rz
    limits (-20.0 45.0)
           (-30.0 30.0)
           (-30.0 30.0)
  end
  begin
     id 13 
     name thorax
     direction 0.0309305 0.998202 0.0513506   
     length 2.16319   
     axis 0 0 0   XYZ
    dof rx ry rz
    limits (-20.0 45.0)
           (-30.0 30.0)
           (-30.0 30.0)
  end
  begin
     id 14 
     name lowerneck
     direction -0.103039 0.983474 0.148872   
     length 1.64318   
     axis 0 0 0   XYZ
    dof rx ry rz
    limits (-20.0 45.0)
           (-30.0 30.0)
           (-30.0 30.0)
  end
  begin
     id 15 
     name upperneck
     direction 0.128124 0.971079 -0.201469   
     length 1.68242   
     axis 0 0 0   XYZ
    dof rx ry rz
    limits (-20.0 45.0)
           (-30.0 30.0)
           (-30.0 30.0)
  end
  begin
     id 16
     name head
     direction 0.0496365 0.994919 -0.0875941  
     length 1.70108  
     axis 0 0 0   XYZ
    dof rx ry rz
    limits (-20.0 45.0)
           (-30.0 30.0)
           (-30.0 30.0)
  end
  begin
     id 17 
     name lclavicle
     direction 0.887148 0.430222 -0.166967  
     length 3.25763  
     axis 0 0 0   XYZ
    dof ry rz
    limits (-20.0 10.0)
           (0.0 20.0)
  end
  begin
     id 18 
     name lhumerus
     direction 1 -4.48962e-011 1.92156e-027   
     length 5.10755   
     axis 180 -30 -90   XYZ
    dof rx ry rz
    limits (-60.0 90.0)
           (-90.0 90.0)
           (-90.0 90.0)
  end
  begin
     id 19
     name lradius
     direction 1 -4.48958e-011 7.10963e-027   
     length 3.36253   
     axis 180 -30 -90   XYZ
    dof rx
    limits (-10.0 170.0)
  end
  begin
     id 20
     name lwrist
     direction 1 -4.48946e-011 1.82396e-026   
     length 1.68127   
     axis -1.15222e-014 90 90   XYZ
    dof ry
    limits (-180.0 0.0)
 end
  begin
     id 21 
     name lhand
     direction 1 -4.48919e-011 3.64759e-026   
     length 0.619088   
     axis -2.32787e-014 90 90   XYZ
    dof rx rz
    limits (-90.0 90.0)
           (-45.0 45.0)
  end
  begin
     id 22 
     name lfingers
     direction 1 -4.49012e-011 7.29744e-026   
     length 0.499125   
     axis -4.6558e-014 90 90   XYZ
    dof rx
    limits (0.0 90.0)
  end
  begin
     id 23
     name lthumb
     direction 0.707107 -6.35028e-011 0.707107   
     length 0.716646   
     axis -90 45 3.78391e-014   XYZ
    dof rx rz
    limits (-45.0 45.0)
           (-45.0 45.0)
  end
  begin
     id 24 
     name rclavicle
     direction -0.82886 0.533198 -0.169384   
     length 3.20647  
     axis 0 0 0   XYZ 
    dof ry rz
    limits (-10.0 20.0)
           (-20.0 0.0)
  end
  begin
     id 25 
     name rhumerus
     direction -1 -4.48973e-011 3.06863e-027  
     length 5.27387   
     axis 180 30 90   XYZ
    dof rx ry rz
    limits (-90.0 60.0)
           (-90.0 90.0)
           (-90.0 90.0)
  end
  begin
     id 26 
     name rradius
     direction -1 -4.48988e-011 9.4797e-027   
     length 3.40144   
     axis 180 30 90   XYZ
    dof rx
    limits (-10.0 170.0)
  end
  begin
     id 27 
     name rwrist
     direction -1 -4.48897e-011 1.82366e-026   
     length 1.70072   
     axis -1.15222e-014 -90 -90   XYZ
    dof ry
    limits (-180.0 0.0)
  end
  begin
     id 28
     name rhand
     direction -1 -4.48965e-011 3.64815e-026   
     length 0.742821   
     axis -2.32787e-014 -90 -90   XYZ
    dof rx rz
    limits (-90.0 90.0)
           (-45.0 45.0)
  end
  begin
     id 29
     name rfingers
     direction -1 -4.49016e-011 7.29754e-026   
     length 0.598881   
     axis -4.6558e-014 -90 -90   XYZ
    dof rx
    limits (0.0 90.0)
  end
  begin
     id 30
     name rthumb
     direction -0.707107 -6.3488e-011 0.707107   
     length 0.859877   
     axis -90 -45 -3.78391e-014   XYZ
    dof rx rz
    limits (-45.0 45.0)
           (-45.0 45.0)
  end
:hierarchy
  begin
    root lhipjoint rhipjoint lowerback
    lhipjoint lfemur
    lfemur ltibia
    ltibia lfoot
    lfoot ltoes
    rhipjoint rfemur
    rfemur rtibia
    rtibia rfoot
    rfoot rtoes
    lowerback upperback
    upperback thorax
    thorax lowerneck lclavicle rclavicle
    lowerneck upperneck
    upperneck head
    lclavicle lhumerus
    lhumerus lradius
    lradius lwrist
    lwrist lhand lthumb
    lhand lfingers
    rclavicle rhumerus
    rhumerus rradius
    rradius rwrist
    rwrist rhand rthumb
    rhand rfingers
  end

#!OML:ASF F:\Work\Patient Classification 1\justin\Session 1\justin.ASF
:FULLY-SPECIFIED
:DEGREES
522
root -2.05696 17.6858 15.5039 135.966 -82.3445 -123.706
lowerback 21.1082 4.94905 -4.65254
upperback 10.4279 4.49028 -3.13959
thorax -0.521961 1.75595 -1.66804
lowerneck -11.3884 5.23124 -12.2739
upperneck 37.5342 8.76415 1.76587
head 14.1897 1.81819 4.00191
rclavicle -3.49861e-014 -2.14687e-014
rhumerus -30.4261 -0.848058 -83.1221
rradius 40.9697
rwrist 1.84287
rhand -17.5787 20.2938
rfingers 7.12502
rthumb 8.67688 -9.50783
lclavicle -3.49861e-014 -2.14687e-014
lhumerus -35.8918 -2.619 86.7004
lradius 33.3777
lwrist -14.3837
lhand -33.5535 23.0785
lfingers 7.12502
lthumb -6.74854 52.9509
rfemur -40.0208 -2.85635 20.4317
rtibia 37.5767
rfoot -2.87437 1.31068
rtoes 7.69538
lfemur -35.7128 9.472 -8.74721
ltibia 35.9645
lfoot -7.51721 1.78838
ltoes -28.492
523
root -2.02252 17.6869 15.5007 137.38 -81.8537 -125.219
lowerback 20.9683 4.47882 -5.49752
upperback 10.4953 3.76412 -2.67401
thorax -0.458896 1.34907 -0.534738
lowerneck -12.0227 5.71309 -13.7759
upperneck 37.6993 9.928 1.78428
head 14.2409 2.07429 4.42584
rclavicle 0 -1.19271e-013
rhumerus -30.391 2.53213 -83.5754
rradius 40.7558
rwrist 1.15341
rhand -17.0437 20.1962
rfingers 7.12502
rthumb 9.19316 -9.58337
lclavicle 0 -1.19271e-013
lhumerus -36.2751 0.0782662 86.7674
lradius 33.84
lwrist -13.1028
lhand -33.3402 23.5047
lfingers 7.12502
lthumb -6.54261 53.3836
rfemur -39.8006 -2.19491 20.4803
rtibia 37.1494
rfoot -2.79563 1.15319
rtoes 11.3049
lfemur -35.6616 10.2094 -8.56265
ltibia 36.0306
lfoot -7.42953 1.58749
ltoes -29.279
524
root -1.98514 17.6806 15.5114 136.977 -81.5995 -125.003
lowerback 21.3787 5.21861 -4.62051
upperback 10.3699 4.81378 -3.02075
thorax -0.728447 1.91221 -1.65059
lowerneck -11.0974 5.05506 -12.1315
upperneck 37.7424 8.35058 1.90131
head 14.2518 1.6586 3.97612
rclavicle 5.32743e-014 -8.74653e-015
rhumerus -32.2283 2.90629 -84.6598
rradius 41.9235
rwrist -1.59927
rhand -17.1651 19.6173
rfingers 7.12502
rthumb 9.07599 -10.1674
lclavicle 5.32743e-014 -8.74653e-015
lhumerus -36.3341 -3.22301 86.8207
lradius 34.0411
lwrist -10.9812
lhand -33.2284 23.7484
lfingers 7.12502
lthumb -6.43472 53.6307
rfemur -39.5716 -1.99785 20.5289
rtibia 36.8036
rfoot -2.68664 1.24527
rtoes 12.5365
lfemur -35.6827 10.5074 -8.40203
ltibia 36.2083
lfoot -7.31509 1.39861
ltoes -29.6793
525
root -1.94291 17.6699 15.5301 137.05 -81.5099 -125.128
lowerback 21.363 4.83676 -4.96661
upperback 10.4601 4.27212 -2.74337
thorax -0.666883 1.62075 -1.03875
lowerneck -11.5478 5.32598 -12.9692
upperneck 37.77 9.07554 1.75452
head 14.2843 1.81749 4.16249
rclavicle -1.11319e-014 4.69132e-014
rhumerus -31.7937 2.25669 -84.3512
rradius 40.704
rwrist 0.691571
rhand -16.2888 21.4676
rfingers 7.12502
rthumb 9.92154 -8.27859
lclavicle -1.11319e-014 4.69132e-014
lhumerus -36.3878 -1.12368 86.7433
lradius 34.3015
lwrist -9.86989
lhand -32.8613 23.8524
lfingers 7.12502
lthumb -6.08035 53.7451
rfemur -39.5549 -1.96952 20.4479
rtibia 36.457
rfoot -2.4315 1.3363
rtoes 12.4925
lfemur -35.8448 10.3979 -8.33903
ltibia 36.3383
lfoot -7.22618 1.45375
ltoes -28.9599
526
root -1.90556 17.6582 15.5354 137.667 -81.3753 -125.806
lowerback 21.3159 4.74493 -4.95951
upperback 10.5153 4.15101 -2.81253
thorax -0.575491 1.55789 -1.08515
lowerneck -11.6755 5.33871 -13.0778
upperneck 37.7641 9.09503 1.89329
head 14.2901 1.8267 4.24367
rclavicle 3.18055e-014 1.90833e-014
rhumerus -32.4886 4.74927 -85.4712
rradius 41.3596
rwrist -1.41904
rhand -16.9594 20.1772
rfingers 7.12502
rthumb 9.27455 -9.59882
lclavicle 3.18055e-014 1.90833e-014
lhumerus -36.3243 -0.109983 86.3921
lradius 34.4228
lwrist -9.44863
lhand -32.1659 23.4463
lfingers 7.12502
lthumb -5.40891 53.3573
rfemur -39.5488 -1.96374 20.4404
rtibia 36.1923
rfoot -2.16193 1.43048
rtoes 14.4058
lfemur -35.9649 10.4891 -8.27505
ltibia 36.503
lfoot -7.22348 1.41137
ltoes -27.9718
